<svg width="122" height="28" viewBox="0 0 122 28" fill="none" xmlns="http://www.w3.org/2000/svg">
<path fill-rule="evenodd" clip-rule="evenodd" d="M33.6511 9.27344H37.453V13.2037H42.1539V16.4404H37.453V21.912C37.453 22.811 37.5814 23.3248 37.9154 23.7102C38.2236 24.0955 38.8915 24.4294 39.842 24.4294C40.3814 24.4294 40.8952 24.378 41.4089 24.2753L41.9998 27.512C41.2291 27.6918 40.4328 27.7946 39.6364 27.7946C37.3502 27.7946 35.6805 27.0239 34.7044 25.7395C33.9851 24.7633 33.6511 23.5047 33.6511 21.4753V9.27344ZM62.9612 9.27344H59.1594V21.4753C59.1594 23.5047 59.4933 24.7633 60.2126 25.7395C61.1887 27.0239 62.8585 27.7946 65.1447 27.7946C65.941 27.7946 66.7374 27.6918 67.5337 27.512L66.9429 24.2753C66.4292 24.378 65.9154 24.4294 65.4016 24.4294C64.4511 24.4294 63.7832 24.0955 63.475 23.7102C63.141 23.3248 63.0126 22.811 63.0126 21.912V16.4404H67.7135V13.2037H63.0126V9.27344H62.9612ZM50.3484 12.9211C46.1355 12.9211 43.4383 16.389 43.4383 20.345C43.4383 24.8148 46.6493 27.7432 50.8878 27.7432C51.9924 27.7688 53.0713 27.5377 54.0732 27.101C55.0749 26.6642 55.974 26.0221 56.719 25.2001L54.5612 23.0423C54.0988 23.5303 53.5594 23.9413 52.9428 24.2239C52.3263 24.5064 51.6585 24.6606 50.9906 24.6863C50.0401 24.7119 49.1153 24.378 48.3961 23.7615C47.6768 23.145 47.2401 22.2459 47.1373 21.2955H57.0016C57.0529 20.9358 57.0786 20.5762 57.0786 20.2165C57.0786 16.2349 54.2786 12.9211 50.3484 12.9211ZM47.2915 18.5211C47.4199 17.8276 47.8052 17.1854 48.3703 16.723C48.9355 16.2606 49.6291 16.0294 50.3484 16.0294C51.0419 16.0294 51.7098 16.2863 52.2236 16.7487C52.7373 17.211 53.0713 17.8533 53.1484 18.5211H47.2915ZM73.8786 14.6679V13.2294H70.2052V27.4606H74.0071V18.4955C74.3667 17.9047 74.8804 17.3909 75.4713 17.0312C76.0878 16.6716 76.7556 16.4661 77.4493 16.4404C77.9117 16.4404 78.3737 16.4661 78.8364 16.5946L79.2728 13.0496C78.8621 12.9725 78.4258 12.9468 78.0143 12.9468C76.2933 12.9211 74.7263 13.6148 73.8786 14.6679ZM86.6197 12.9211C88.1355 12.8955 89.6001 13.4092 90.7815 14.3597V13.2037H94.455V27.4349H90.7815V26.2789C89.6771 27.2294 88.2895 27.7432 86.8258 27.7175C85.7975 27.7175 84.7958 27.512 83.871 27.101C82.9462 26.69 82.1249 26.0734 81.4568 25.3285C80.2753 23.9413 79.6329 22.1688 79.6329 20.345C79.6329 16.1579 82.7409 12.9211 86.6197 12.9211ZM89.1373 23.7872C89.7284 23.4789 90.2418 23.0165 90.6275 22.4771H90.6789V18.2386C90.2674 17.6734 89.7541 17.2367 89.1373 16.9285C88.5205 16.6202 87.8532 16.4661 87.1594 16.4661C84.9249 16.4661 83.486 18.3156 83.486 20.3707C83.4603 20.8844 83.5373 21.3982 83.717 21.8606C83.8967 22.323 84.1541 22.7597 84.5134 23.1193C84.8471 23.4789 85.2842 23.7615 85.7462 23.9671C86.209 24.1468 86.6967 24.2496 87.2108 24.2496C87.8789 24.2496 88.5462 24.0955 89.1373 23.7872ZM100.723 9.27344H96.9205V21.4753C96.9205 23.5047 97.255 24.7633 97.9744 25.7395C98.9505 27.0239 100.62 27.7946 102.906 27.7946C103.703 27.7946 104.499 27.6918 105.269 27.512L104.679 24.2753C104.165 24.378 103.651 24.4294 103.112 24.4294C102.161 24.4294 101.493 24.0955 101.185 23.7102C100.851 23.3248 100.723 22.811 100.723 21.912V16.4404H105.424V13.2037H100.723V9.27344ZM112.821 12.9211C116.752 12.9211 119.552 16.2349 119.552 20.1909C119.552 20.5279 119.507 20.865 119.459 21.2231L119.449 21.2955H109.611C109.713 22.2459 110.15 23.145 110.869 23.7615C111.589 24.378 112.513 24.7119 113.464 24.6863C114.132 24.6606 114.799 24.5064 115.416 24.2239C116.033 23.9413 116.572 23.5303 117.035 23.0423L119.192 25.2001C118.447 26.0221 117.548 26.6642 116.546 27.101C115.544 27.5377 114.466 27.7688 113.361 27.7432C109.122 27.7432 105.912 24.8148 105.912 20.345C105.912 16.389 108.609 12.9211 112.821 12.9211ZM110.844 16.723C110.279 17.1854 109.893 17.8276 109.765 18.5211H115.621C115.544 17.8533 115.211 17.211 114.697 16.7487C114.183 16.2863 113.515 16.0294 112.821 16.0294C112.103 16.0294 111.409 16.2606 110.844 16.723Z" fill="#0A0D0F"/>
<path fill-rule="evenodd" clip-rule="evenodd" d="M19.7794 5.31883C21.0381 6.06378 22.5024 6.29497 23.9152 6.03809C26.7152 5.67846 28.7445 8.7353 27.306 11.1757C25.9189 13.6418 22.2455 13.3849 21.1666 10.7903C18.6235 4.21424 9.2216 4.21424 6.65282 10.7903C5.5996 13.3849 1.90052 13.6418 0.513367 11.1757C-0.899477 8.7353 1.12988 5.67846 3.90419 6.03809C5.31704 6.29497 6.78126 6.0381 8.04 5.31883C9.32434 4.59956 10.2491 3.46928 10.7373 2.10781C11.8675 -0.692188 15.9519 -0.692188 17.0822 2.10781C17.5703 3.44359 18.5207 4.59956 19.7794 5.31883ZM13.9226 8.86379C16.7226 8.86379 18.3666 12.1262 16.6455 14.3867C15.7207 15.4656 15.207 16.8527 15.207 18.317C15.207 19.7555 15.7207 21.1427 16.6455 22.2473C18.3923 24.5078 16.7226 27.7959 13.9226 27.7702C11.1226 27.7702 9.4785 24.5078 11.1996 22.2473C12.1244 21.1684 12.6381 19.7812 12.6381 18.317C12.6381 16.8785 12.1244 15.4913 11.1996 14.3867C9.45283 12.1262 11.1226 8.83813 13.9226 8.86379Z" fill="#FF5500"/>
</svg>
